<?xml version="1.0" encoding="UTF-8" standalone="no"?>
<!-- Created with Inkscape (http://www.inkscape.org/) -->

<svg
   xmlns:dc="http://purl.org/dc/elements/1.1/"
   xmlns:cc="http://creativecommons.org/ns#"
   xmlns:rdf="http://www.w3.org/1999/02/22-rdf-syntax-ns#"
   xmlns:svg="http://www.w3.org/2000/svg"
   xmlns="http://www.w3.org/2000/svg"
   xmlns:sodipodi="http://sodipodi.sourceforge.net/DTD/sodipodi-0.dtd"
   xmlns:inkscape="http://www.inkscape.org/namespaces/inkscape"
   width="1661.4731"
   height="1661.4977"
   viewBox="0 0 1661.4731 1661.4977"
   id="svg2"
   version="1.1"
   inkscape:version="0.91 r13725"
   sodipodi:docname="amorbaicon.svg">
  <title
     id="title4781">Amorba Icon</title>
  <defs
     id="defs4">
    <clipPath
       clipPathUnits="userSpaceOnUse"
       id="clipPath4572">
      <rect
         style="opacity:1;fill:#333333;fill-opacity:1;stroke:none;stroke-width:16.28009224;stroke-linecap:round;stroke-linejoin:round;stroke-miterlimit:20;stroke-dasharray:none;stroke-opacity:1"
         id="rect4574"
         width="1461.3208"
         height="1461.3208"
         x="250.37978"
         y="276.93036"
         ry="337.15247" />
    </clipPath>
    <clipPath
       clipPathUnits="userSpaceOnUse"
       id="clipPath4576">
      <rect
         style="opacity:1;fill:#333333;fill-opacity:1;stroke:none;stroke-width:16.28009224;stroke-linecap:round;stroke-linejoin:round;stroke-miterlimit:20;stroke-dasharray:none;stroke-opacity:1"
         id="rect4578"
         width="1461.3208"
         height="1461.3208"
         x="250.37978"
         y="276.93036"
         ry="337.15247" />
    </clipPath>
    <clipPath
       clipPathUnits="userSpaceOnUse"
       id="clipPath4580">
      <rect
         style="opacity:1;fill:#333333;fill-opacity:1;stroke:none;stroke-width:16.28009224;stroke-linecap:round;stroke-linejoin:round;stroke-miterlimit:20;stroke-dasharray:none;stroke-opacity:1"
         id="rect4582"
         width="1461.3208"
         height="1461.3208"
         x="250.37978"
         y="276.93036"
         ry="337.15247" />
    </clipPath>
    <clipPath
       clipPathUnits="userSpaceOnUse"
       id="clipPath4584">
      <rect
         style="opacity:1;fill:#333333;fill-opacity:1;stroke:none;stroke-width:16.28009224;stroke-linecap:round;stroke-linejoin:round;stroke-miterlimit:20;stroke-dasharray:none;stroke-opacity:1"
         id="rect4586"
         width="1461.3208"
         height="1461.3208"
         x="250.37978"
         y="276.93036"
         ry="337.15247" />
    </clipPath>
    <clipPath
       clipPathUnits="userSpaceOnUse"
       id="clipPath4588">
      <rect
         style="opacity:1;fill:#333333;fill-opacity:1;stroke:none;stroke-width:16.28009224;stroke-linecap:round;stroke-linejoin:round;stroke-miterlimit:20;stroke-dasharray:none;stroke-opacity:1"
         id="rect4590"
         width="1461.3208"
         height="1461.3208"
         x="250.37978"
         y="276.93036"
         ry="337.15247" />
    </clipPath>
    <clipPath
       clipPathUnits="userSpaceOnUse"
       id="clipPath4592">
      <rect
         style="opacity:1;fill:#333333;fill-opacity:1;stroke:none;stroke-width:16.28009224;stroke-linecap:round;stroke-linejoin:round;stroke-miterlimit:20;stroke-dasharray:none;stroke-opacity:1"
         id="rect4594"
         width="1461.3208"
         height="1461.3208"
         x="250.37978"
         y="276.93036"
         ry="337.15247" />
    </clipPath>
    <clipPath
       clipPathUnits="userSpaceOnUse"
       id="clipPath4596">
      <rect
         style="opacity:1;fill:#333333;fill-opacity:1;stroke:none;stroke-width:16.28009224;stroke-linecap:round;stroke-linejoin:round;stroke-miterlimit:20;stroke-dasharray:none;stroke-opacity:1"
         id="rect4598"
         width="1461.3208"
         height="1461.3208"
         x="250.37978"
         y="276.93036"
         ry="337.15247" />
    </clipPath>
    <clipPath
       clipPathUnits="userSpaceOnUse"
       id="clipPath4600">
      <rect
         style="opacity:1;fill:#333333;fill-opacity:1;stroke:none;stroke-width:16.28009224;stroke-linecap:round;stroke-linejoin:round;stroke-miterlimit:20;stroke-dasharray:none;stroke-opacity:1"
         id="rect4602"
         width="1461.3208"
         height="1461.3208"
         x="250.37978"
         y="276.93036"
         ry="337.15247" />
    </clipPath>
    <clipPath
       clipPathUnits="userSpaceOnUse"
       id="clipPath4580-8">
      <rect
         style="opacity:1;fill:#333333;fill-opacity:1;stroke:none;stroke-width:16.28009224;stroke-linecap:round;stroke-linejoin:round;stroke-miterlimit:20;stroke-dasharray:none;stroke-opacity:1"
         id="rect4582-7"
         width="1461.3208"
         height="1461.3208"
         x="250.37978"
         y="276.93036"
         ry="337.15247" />
    </clipPath>
    <clipPath
       clipPathUnits="userSpaceOnUse"
       id="clipPath4576-5">
      <rect
         style="opacity:1;fill:#333333;fill-opacity:1;stroke:none;stroke-width:16.28009224;stroke-linecap:round;stroke-linejoin:round;stroke-miterlimit:20;stroke-dasharray:none;stroke-opacity:1"
         id="rect4578-4"
         width="1461.3208"
         height="1461.3208"
         x="250.37978"
         y="276.93036"
         ry="337.15247" />
    </clipPath>
    <clipPath
       clipPathUnits="userSpaceOnUse"
       id="clipPath4576-5-3">
      <rect
         style="opacity:1;fill:#333333;fill-opacity:1;stroke:none;stroke-width:16.28009224;stroke-linecap:round;stroke-linejoin:round;stroke-miterlimit:20;stroke-dasharray:none;stroke-opacity:1"
         id="rect4578-4-1"
         width="1461.3208"
         height="1461.3208"
         x="250.37978"
         y="276.93036"
         ry="337.15247" />
    </clipPath>
    <clipPath
       clipPathUnits="userSpaceOnUse"
       id="clipPath4576-5-3-0">
      <rect
         style="opacity:1;fill:#333333;fill-opacity:1;stroke:none;stroke-width:16.28009224;stroke-linecap:round;stroke-linejoin:round;stroke-miterlimit:20;stroke-dasharray:none;stroke-opacity:1"
         id="rect4578-4-1-9"
         width="1461.3208"
         height="1461.3208"
         x="250.37978"
         y="276.93036"
         ry="337.15247" />
    </clipPath>
    <clipPath
       clipPathUnits="userSpaceOnUse"
       id="clipPath4732">
      <path
         style="fill:#1a1a1a;fill-rule:evenodd;stroke:none;stroke-width:1px;stroke-linecap:butt;stroke-linejoin:miter;stroke-opacity:1"
         d="m -428.49673,-407.53264 c 44.79773,508.71885 94.82329,970.15073 156.59603,1214.90911 64.13491,210.50953 131.9215,291.56903 198.76459,315.83703 250.38302,93.798 500.9793,65.0299 751.4258,60.4608 90.7318,-0.1077 178.6231,-328.71236 256.9667,-804.1037 23.2714,-201.7668 53.0124,-680.74446 68.23161,-711.74 -8.46781,836.99912 -68.67321,1434.5752 -127.73671,1911.9903 -64.5774,429.3404 -139.3602,702.855 -216.0195,634.0307 -258.8894,20.3067 -517.88168,-13.7805 -776.72073,7.6177 -47.92297,-24.1742 -95.77039,-151.1941 -138.67963,-379.0738 -58.2131,-322.3695 -108.02457,-812.6622 -140.65421,-1426.28933 -15.5054,-248.41474 -24.05818,-539.68852 -32.17395,-823.63881 z"
         id="path4734"
         inkscape:connector-curvature="0"
         sodipodi:nodetypes="cccccccccccc" />
    </clipPath>
    <clipPath
       clipPathUnits="userSpaceOnUse"
       id="clipPath4736">
      <path
         style="fill:#1a1a1a;fill-rule:evenodd;stroke:none;stroke-width:1px;stroke-linecap:butt;stroke-linejoin:miter;stroke-opacity:1"
         d="m -82.93577,-1315.6826 c 44.79773,508.71886 94.82329,970.15073 156.59603,1214.90912 64.13491,210.50951 131.9215,291.56905 198.76459,315.83701 250.38302,93.79806 500.9793,65.02996 751.42585,60.46086 90.7318,-0.10776 178.6231,-328.7124 256.9667,-804.10375 23.2714,-201.76679 53.0124,-680.74444 68.2316,-711.74004 -8.4678,836.99917 -68.6732,1434.5752 -127.7367,1911.99031 -64.5774,429.34039 -139.3602,702.85499 -216.0195,634.03079 -258.88945,20.3066 -517.88173,-13.7806 -776.72078,7.6177 C 180.64905,1289.1452 132.80163,1162.1252 89.89239,934.24556 31.67929,611.87602 -18.13218,121.58337 -50.76182,-492.04378 -66.26722,-740.45852 -74.82,-1031.7323 -82.93577,-1315.6826 Z"
         id="path4738"
         inkscape:connector-curvature="0"
         sodipodi:nodetypes="cccccccccccc" />
    </clipPath>
    <clipPath
       clipPathUnits="userSpaceOnUse"
       id="clipPath4740">
      <path
         style="fill:#1a1a1a;fill-rule:evenodd;stroke:none;stroke-width:1px;stroke-linecap:butt;stroke-linejoin:miter;stroke-opacity:1"
         d="m 263.73094,-1312.1361 c 44.79773,508.7188 94.82329,970.15068 156.59603,1214.90906 64.13491,210.50952 131.9215,291.56905 198.76459,315.83701 250.38302,93.79806 500.97934,65.02996 751.42584,60.46086 90.7318,-0.10776 178.6231,-328.712398 256.9667,-804.10374 23.2714,-201.7668 53.0124,-680.74449 68.2316,-711.73999 -8.4678,836.99911 -68.6732,1434.57514 -127.7367,1911.99025 -64.5774,429.34045 -139.3602,702.85505 -216.0195,634.03075 -258.8894,20.3067 -517.88172,-13.7806 -776.72077,7.6177 C 527.31576,1292.6916 479.46834,1165.6716 436.5591,937.792 378.346,615.42246 328.53453,125.12981 295.90489,-488.49734 280.39949,-736.91208 271.84671,-1028.1859 263.73094,-1312.1361 Z"
         id="path4742"
         inkscape:connector-curvature="0"
         sodipodi:nodetypes="cccccccccccc" />
    </clipPath>
    <clipPath
       clipPathUnits="userSpaceOnUse"
       id="clipPath4744">
      <path
         style="fill:#1a1a1a;fill-rule:evenodd;stroke:none;stroke-width:1px;stroke-linecap:butt;stroke-linejoin:miter;stroke-opacity:1"
         d="m 263.74905,-1020.0405 c 44.79773,451.62601 94.82329,861.27201 156.59603,1078.561494 64.13491,186.884316 131.9215,258.846646 198.76459,280.391056 250.38302,83.27122 500.97933,57.73173 751.42583,53.67541 90.7318,-0.0957 178.6231,-291.82145 256.9667,-713.86026 23.2714,-179.12279 53.0124,-604.34543 68.2316,-631.86238 -8.4678,743.06384 -68.6732,1273.57472 -127.7367,1697.41018 -64.5774,381.1561 -139.3602,623.9746 -216.0195,562.8744 -258.8894,18.0276 -517.88171,-12.2341 -776.72076,6.7627 C 527.33387,1292.4509 479.48645,1179.6863 436.57721,977.38125 378.36411,691.19081 328.55264,255.92304 295.923,-288.83757 280.4176,-509.37306 271.86482,-767.95758 263.74905,-1020.0405 Z"
         id="path4746"
         inkscape:connector-curvature="0"
         sodipodi:nodetypes="cccccccccccc" />
    </clipPath>
  </defs>
  <sodipodi:namedview
     id="base"
     pagecolor="#ffffff"
     bordercolor="#666666"
     borderopacity="1.0"
     inkscape:pageopacity="1"
     inkscape:pageshadow="2"
     inkscape:zoom="0.175"
     inkscape:cx="2117.8905"
     inkscape:cy="917.84103"
     inkscape:document-units="px"
     inkscape:current-layer="layer1"
     showgrid="false"
     units="px"
     fit-margin-top="100"
     fit-margin-left="100"
     fit-margin-right="100"
     fit-margin-bottom="100"
     inkscape:window-width="1366"
     inkscape:window-height="745"
     inkscape:window-x="-8"
     inkscape:window-y="-8"
     inkscape:window-maximized="1" />
  <metadata
     id="metadata7">
    <rdf:RDF>
      <cc:Work
         rdf:about="">
        <dc:format>image/svg+xml</dc:format>
        <dc:type
           rdf:resource="http://purl.org/dc/dcmitype/StillImage" />
        <dc:title>Amorba Icon</dc:title>
      </cc:Work>
    </rdf:RDF>
  </metadata>
  <g
     inkscape:groupmode="layer"
     id="layer3"
     inkscape:label="Square"
     transform="translate(-150.22745,-176.93036)">
    <rect
       style="opacity:1;fill:#333333;fill-opacity:1;stroke:none;stroke-width:16.28009224;stroke-linecap:round;stroke-linejoin:round;stroke-miterlimit:20;stroke-dasharray:none;stroke-opacity:1"
       id="rect4257"
       width="1461.3208"
       height="1461.3208"
       x="250.22745"
       y="277.10727"
       ry="337.15247" />
    <path
       style="fill:none;fill-rule:evenodd;stroke:#666666;stroke-width:20;stroke-linecap:butt;stroke-linejoin:miter;stroke-miterlimit:4;stroke-dasharray:none;stroke-opacity:1"
       d="m 1281.8836,1820.5429 0,-1700.00012"
       id="path4288-2-5-2-4"
       inkscape:connector-curvature="0"
       clip-path="url(#clipPath4600)" />
    <path
       style="fill:none;fill-rule:evenodd;stroke:#666666;stroke-width:20;stroke-linecap:butt;stroke-linejoin:miter;stroke-miterlimit:4;stroke-dasharray:none;stroke-opacity:1"
       d="m 1840,957.14288 -1700,0"
       id="path4288-2-5"
       inkscape:connector-curvature="0"
       clip-path="url(#clipPath4596)" />
    <path
       style="fill:none;fill-rule:evenodd;stroke:#666666;stroke-width:20;stroke-linecap:butt;stroke-linejoin:miter;stroke-miterlimit:4;stroke-dasharray:none;stroke-opacity:1"
       d="m 1833.1964,611.42369 -1449.33843,0 -250.66162,0"
       id="path4288"
       inkscape:connector-curvature="0"
       sodipodi:nodetypes="ccc"
       clip-path="url(#clipPath4592)" />
    <path
       style="fill:none;fill-rule:evenodd;stroke:#666666;stroke-width:20;stroke-linecap:butt;stroke-linejoin:miter;stroke-miterlimit:4;stroke-dasharray:none;stroke-opacity:1"
       d="m 1627.6083,1714.5885 0,-1700.000009"
       id="path4288-2-5-2-5"
       inkscape:connector-curvature="0"
       clip-path="url(#clipPath4588)" />
    <path
       style="fill:none;fill-rule:evenodd;stroke:#666666;stroke-width:20;stroke-linecap:butt;stroke-linejoin:miter;stroke-miterlimit:4;stroke-dasharray:none;stroke-opacity:1"
       d="m 1832.8572,1662.8571 -1700.00005,0"
       id="path4288-2"
       inkscape:connector-curvature="0"
       clip-path="url(#clipPath4584)" />
    <path
       style="color:#000000;font-style:normal;font-variant:normal;font-weight:normal;font-stretch:normal;font-size:medium;line-height:normal;font-family:sans-serif;text-indent:0;text-align:start;text-decoration:none;text-decoration-line:none;text-decoration-style:solid;text-decoration-color:#000000;letter-spacing:normal;word-spacing:normal;text-transform:none;direction:ltr;block-progression:tb;writing-mode:lr-tb;baseline-shift:baseline;text-anchor:start;white-space:normal;clip-rule:nonzero;display:inline;overflow:visible;visibility:visible;opacity:1;isolation:auto;mix-blend-mode:normal;color-interpolation:sRGB;color-interpolation-filters:linearRGB;solid-color:#000000;solid-opacity:1;fill:none;fill-opacity:1;fill-rule:evenodd;stroke:#ffffff;stroke-width:20;stroke-linecap:butt;stroke-linejoin:miter;stroke-miterlimit:4;stroke-dasharray:none;stroke-dashoffset:0;stroke-opacity:1;color-rendering:auto;image-rendering:auto;shape-rendering:auto;text-rendering:auto;enable-background:accumulate"
       d="m 570,241.08845 0,1565.04145 20,0 0,-1565.04145 -20,0 z"
       id="path4259"
       inkscape:connector-curvature="0"
       clip-path="url(#clipPath4580)" />
    <path
       style="fill:none;fill-rule:evenodd;stroke:#666666;stroke-width:20;stroke-linecap:butt;stroke-linejoin:miter;stroke-miterlimit:4;stroke-dasharray:none;stroke-opacity:1"
       d="m 935.29075,1937.789 0,-1700.00006"
       id="path4288-2-5-2"
       inkscape:connector-curvature="0"
       clip-path="url(#clipPath4576)" />
    <path
       style="color:#000000;font-style:normal;font-variant:normal;font-weight:normal;font-stretch:normal;font-size:medium;line-height:normal;font-family:sans-serif;text-indent:0;text-align:start;text-decoration:none;text-decoration-line:none;text-decoration-style:solid;text-decoration-color:#000000;letter-spacing:normal;word-spacing:normal;text-transform:none;direction:ltr;block-progression:tb;writing-mode:lr-tb;baseline-shift:baseline;text-anchor:start;white-space:normal;clip-rule:nonzero;display:inline;overflow:visible;visibility:visible;opacity:1;isolation:auto;mix-blend-mode:normal;color-interpolation:sRGB;color-interpolation-filters:linearRGB;solid-color:#000000;solid-opacity:1;fill:none;fill-opacity:1;fill-rule:evenodd;stroke:#ffffff;stroke-width:20;stroke-linecap:butt;stroke-linejoin:miter;stroke-miterlimit:4;stroke-dasharray:none;stroke-dashoffset:0;stroke-opacity:1;color-rendering:auto;image-rendering:auto;shape-rendering:auto;text-rendering:auto;enable-background:accumulate"
       d="m 1917.9322,1299.0556 -1799.39684,0 0,20 1799.39684,0 0,-20 z"
       id="path4259-3"
       inkscape:connector-curvature="0"
       clip-path="url(#clipPath4572)" />
    <path
       style="fill:#1a1a1a;fill-rule:evenodd;stroke:none;stroke-width:1px;stroke-linecap:butt;stroke-linejoin:miter;stroke-opacity:1"
       d="m 263.59913,1494.3845 c 44.79773,47.2077 94.82329,90.0273 156.59603,112.7402 64.13491,19.5347 131.9215,27.0568 198.76459,29.3088 250.38302,8.7042 500.97935,6.0346 751.42575,5.6106 90.7318,-0.01 178.6231,-30.5036 256.9667,-74.6186 23.2714,-18.7234 53.0124,-63.1712 68.2316,-66.0475 -8.4678,77.6712 -68.6732,133.1246 -127.7367,177.4274 -64.5774,39.8416 -139.3602,65.223 -216.0195,58.8363 -258.8893,1.8844 -517.88163,-1.2788 -776.72068,0.7069 -47.92297,-2.2433 -95.77039,-14.0304 -138.67963,-35.177 -58.2131,-29.915 -108.02457,-75.4128 -140.65421,-132.3557 -15.5054,-23.0522 -24.05818,-50.0816 -32.17395,-76.4314 z"
       id="path4619"
       inkscape:connector-curvature="0"
       sodipodi:nodetypes="cccccccccccc" />
    <path
       transform="matrix(1,0,0,0.1045283,0.00153339,1601.1685)"
       style="color:#000000;font-style:normal;font-variant:normal;font-weight:normal;font-stretch:normal;font-size:medium;line-height:normal;font-family:sans-serif;text-indent:0;text-align:start;text-decoration:none;text-decoration-line:none;text-decoration-style:solid;text-decoration-color:#000000;letter-spacing:normal;word-spacing:normal;text-transform:none;direction:ltr;block-progression:tb;writing-mode:lr-tb;baseline-shift:baseline;text-anchor:start;white-space:normal;clip-rule:nonzero;display:inline;overflow:visible;visibility:visible;opacity:1;isolation:auto;mix-blend-mode:normal;color-interpolation:sRGB;color-interpolation-filters:linearRGB;solid-color:#000000;solid-opacity:1;fill:none;fill-opacity:1;fill-rule:evenodd;stroke:#999999;stroke-width:20;stroke-linecap:butt;stroke-linejoin:miter;stroke-miterlimit:4;stroke-dasharray:none;stroke-dashoffset:0;stroke-opacity:1;color-rendering:auto;image-rendering:auto;shape-rendering:auto;text-rendering:auto;enable-background:accumulate"
       d="m 570,241.08845 0,1565.04145 20,0 0,-1565.04145 -20,0 z"
       id="path4259-4"
       inkscape:connector-curvature="0"
       clip-path="url(#clipPath4744)" />
    <path
       transform="matrix(1,0,0,0.09279723,0.01964093,1616.308)"
       style="fill:none;fill-rule:evenodd;stroke:#333333;stroke-width:20;stroke-linecap:butt;stroke-linejoin:miter;stroke-miterlimit:4;stroke-dasharray:none;stroke-opacity:1"
       d="m 935.29075,1937.789 0,-1700.00006"
       id="path4288-2-5-2-6"
       inkscape:connector-curvature="0"
       clip-path="url(#clipPath4740)" />
    <path
       transform="matrix(1,0,0,0.09279723,346.68635,1616.6371)"
       style="fill:none;fill-rule:evenodd;stroke:#333333;stroke-width:20;stroke-linecap:butt;stroke-linejoin:miter;stroke-miterlimit:4;stroke-dasharray:none;stroke-opacity:1"
       d="m 935.29075,1937.789 0,-1700.00006"
       id="path4288-2-5-2-6-5"
       inkscape:connector-curvature="0"
       clip-path="url(#clipPath4736)" />
    <path
       transform="matrix(1,0,0,0.09279723,692.24731,1532.3633)"
       style="fill:none;fill-rule:evenodd;stroke:#333333;stroke-width:20;stroke-linecap:butt;stroke-linejoin:miter;stroke-miterlimit:4;stroke-dasharray:none;stroke-opacity:1"
       d="m 935.29075,1937.789 0,-1700.00006"
       id="path4288-2-5-2-6-5-9"
       inkscape:connector-curvature="0"
       clip-path="url(#clipPath4732)" />
  </g>
  <g
     inkscape:groupmode="layer"
     id="layer2"
     inkscape:label="Background"
     transform="translate(-150.22745,-176.93036)" />
  <g
     inkscape:label="Cell"
     inkscape:groupmode="layer"
     id="layer1"
     transform="translate(-150.22745,770.70748)">
    <circle
       style="opacity:0.5;fill:#ff0000;fill-opacity:1;stroke:#ff0000;stroke-width:11.16438389;stroke-linecap:round;stroke-linejoin:round;stroke-miterlimit:4;stroke-dasharray:none;stroke-opacity:1"
       id="path4214-7"
       cx="1173.8613"
       cy="217.93394"
       r="169.06065" />
    <path
       style="opacity:0.5;fill:#00aa00;fill-rule:evenodd;stroke:#00aa00;stroke-width:16.68354225;stroke-linecap:butt;stroke-linejoin:miter;stroke-miterlimit:4;stroke-dasharray:none;stroke-opacity:1"
       d="m 1175.7163,-411.7957 c -48.155,0.78257 -116.1994,16.01639 -162.7064,26.58655 -41.85108,18.55915 -68.5453,29.22768 -105.58607,56.03449 -38.30477,25.28653 -60.3009,70.45445 -84.10168,108.12824 C 762.20735,-125.31979 707.089,-23.597194 683.28341,87.582154 666.83902,153.77369 662.12301,222.4973 660.425,290.39549 c -0.44432,50.31381 7.6651,105.07811 39.42529,146.11816 28.15082,36.78087 82.47035,42.81775 126.68097,41.70263 55.70797,0.28144 120.65686,-1.06313 162.03561,-42.39184 25.15223,-47.86358 -52.68338,-78.63658 -53.08954,-129.37956 -11.43528,-78.60096 -10.40008,-172.66125 54.34924,-230.413776 66.68683,-65.094629 171.06683,-95.963208 260.83543,-60.595129 70.9504,29.025133 140.292,84.278769 150.0939,163.182725 8.0457,48.28258 8.183,99.64425 -6.7152,146.46353 -11.4464,44.96667 -95.1544,92.59571 -24.7023,129.13459 59.7375,28.55543 129.0744,26.66865 193.5462,20.69005 47.8864,-6.14146 87.825,-39.97725 98.1428,-86.06613 27.7838,-83.33217 9.8847,-171.70012 1.5885,-256.68825 C 1644.2366,34.107716 1609.5294,-60.993514 1557,-146.7793 c -27.6892,-50.47154 -58.1775,-100.57951 -95.6332,-144.65222 -30.0615,-29.14229 -54.3821,-58.84939 -94.4046,-73.00533 -38.7069,-20.03339 -62.5466,-27.10189 -104.6294,-36.96951 -19.3511,-4.53748 -67.3553,-5.34022 -86.6165,-10.38934 z"
       id="path4216-2"
       inkscape:connector-curvature="0"
       sodipodi:nodetypes="cccccccccccccccccccccsc" />
    <circle
       style="opacity:1;fill:#ff5555;fill-opacity:1;stroke:#800000;stroke-width:11.16438389;stroke-linecap:round;stroke-linejoin:round;stroke-miterlimit:4;stroke-dasharray:none;stroke-opacity:1"
       id="path4214"
       cx="1143.0775"
       cy="178.66814"
       r="169.06065" />
    <path
       style="fill:#aaffaa;fill-rule:evenodd;stroke:#005500;stroke-width:16.68354225;stroke-linecap:butt;stroke-linejoin:miter;stroke-miterlimit:4;stroke-dasharray:none;stroke-opacity:1"
       d="m 1144.9324,-451.06145 c -48.155,0.78257 -116.1994,16.01639 -162.7064,26.58655 -41.85097,18.55915 -68.54522,29.22768 -105.58599,56.03449 -38.30477,25.28653 -60.3009,70.45445 -84.10168,108.12824 -61.1148,95.72662 -116.23315,197.449222 -140.03874,308.628568 -16.44439,66.191542 -21.1604,134.915152 -22.85841,202.813342 -0.44432,50.31381 7.6651,105.07811 39.42529,146.11816 28.15082,36.78087 82.47035,42.81775 126.68097,41.70263 55.70797,0.28144 120.65686,-1.06313 162.03554,-42.39184 25.15222,-47.86358 -52.68331,-78.63658 -53.08947,-129.37956 -11.43528,-78.60096 -10.40008,-172.661252 54.34916,-230.413782 66.68683,-65.094631 171.06683,-95.96321 260.83543,-60.595132 70.9504,29.0251423 140.292,84.278772 150.0939,163.182734 8.0457,48.28258 8.183,99.64425 -6.7152,146.46353 -11.4464,44.96667 -95.1544,92.59571 -24.7023,129.13459 59.7375,28.55543 129.0744,26.66865 193.5462,20.69005 47.8864,-6.14146 87.825,-39.97725 98.1428,-86.06613 27.7837,-83.33217 9.8847,-171.70012 1.5885,-256.688252 -18.3793,-98.0447837 -53.0865,-193.146008 -105.6159,-278.931798 -27.6892,-50.47153 -58.1775,-100.5795 -95.6332,-144.65221 -30.0615,-29.14229 -54.3821,-58.84939 -94.4046,-73.00533 -38.7069,-20.03339 -62.5466,-27.10189 -104.6294,-36.96951 -19.3511,-4.53748 -67.3553,-5.34022 -86.6165,-10.38934 z"
       id="path4216"
       inkscape:connector-curvature="0"
       sodipodi:nodetypes="cccccccccccccccccccccsc" />
  </g>
</svg>
